<svg width="32" height="32" viewBox="0 0 32 32" fill="none" xmlns="http://www.w3.org/2000/svg">
<path d="M23.8667 14.5332C19.6001 11.9998 12.4667 11.7332 8.40008 12.9998C7.73341 13.1998 7.06675 12.7998 6.86675 12.1998C6.66675 11.5332 7.06675 10.8665 7.66675 10.6665C12.4001 9.2665 20.2001 9.53317 25.1334 12.4665C25.7334 12.7998 25.9334 13.5998 25.6001 14.1998C25.2667 14.6665 24.4667 14.8665 23.8667 14.5332ZM23.7334 18.2665C23.4001 18.7332 22.8001 18.9332 22.3334 18.5998C18.7334 16.3998 13.2667 15.7332 9.06675 17.0665C8.53341 17.1998 7.93341 16.9332 7.80008 16.3998C7.66675 15.8665 7.93341 15.2665 8.46675 15.1332C13.3334 13.6665 19.3334 14.3998 23.4667 16.9332C23.8667 17.1332 24.0667 17.7998 23.7334 18.2665ZM22.1334 21.9332C21.8667 22.3332 21.4001 22.4665 21.0001 22.1998C17.8667 20.2665 13.9334 19.8665 9.26675 20.9332C8.80008 21.0665 8.40008 20.7332 8.26675 20.3332C8.13341 19.8665 8.46675 19.4665 8.86675 19.3332C13.9334 18.1998 18.3334 18.6665 21.8001 20.7998C22.2667 20.9998 22.3334 21.5332 22.1334 21.9332ZM16.0001 2.6665C14.2491 2.6665 12.5153 3.01138 10.8976 3.68144C9.27996 4.35151 7.81011 5.33363 6.57199 6.57175C4.07151 9.07223 2.66675 12.4636 2.66675 15.9998C2.66675 19.5361 4.07151 22.9274 6.57199 25.4279C7.81011 26.666 9.27996 27.6482 10.8976 28.3182C12.5153 28.9883 14.2491 29.3332 16.0001 29.3332C19.5363 29.3332 22.9277 27.9284 25.4282 25.4279C27.9287 22.9274 29.3334 19.5361 29.3334 15.9998C29.3334 14.2489 28.9885 12.5151 28.3185 10.8974C27.6484 9.27972 26.6663 7.80986 25.4282 6.57175C24.1901 5.33363 22.7202 4.35151 21.1025 3.68144C19.4849 3.01138 17.751 2.6665 16.0001 2.6665Z" fill="black"/>
</svg>
